<svg width="16" height="20" viewBox="0 0 16 20" fill="none" xmlns="http://www.w3.org/2000/svg">
    <path
        d="M6.8001 0.400024C6.48184 0.400024 6.17661 0.526453 5.95157 0.751496C5.72653 0.97654 5.6001 1.28176 5.6001 1.60002C5.6001 1.91828 5.72653 2.22351 5.95157 2.44855C6.17661 2.6736 6.48184 2.80002 6.8001 2.80002H9.2001C9.51836 2.80002 9.82358 2.6736 10.0486 2.44855C10.2737 2.22351 10.4001 1.91828 10.4001 1.60002C10.4001 1.28176 10.2737 0.97654 10.0486 0.751496C9.82358 0.526453 9.51836 0.400024 9.2001 0.400024H6.8001Z"
        fill="#111827" />
    <path fill-rule="evenodd" clip-rule="evenodd"
        d="M0.800049 3.99998C0.800049 3.36346 1.05291 2.75301 1.50299 2.30292C1.95308 1.85283 2.56353 1.59998 3.20005 1.59998C3.20005 2.55475 3.57933 3.47043 4.25446 4.14556C4.9296 4.82069 5.84527 5.19998 6.80005 5.19998H9.20005C10.1548 5.19998 11.0705 4.82069 11.7456 4.14556C12.4208 3.47043 12.8 2.55475 12.8 1.59998C13.4366 1.59998 14.047 1.85283 14.4971 2.30292C14.9472 2.75301 15.2 3.36346 15.2 3.99998V17.2C15.2 17.8365 14.9472 18.4469 14.4971 18.897C14.047 19.3471 13.4366 19.6 12.8 19.6H3.20005C2.56353 19.6 1.95308 19.3471 1.50299 18.897C1.05291 18.4469 0.800049 17.8365 0.800049 17.2V3.99998ZM4.40005 8.79998C4.08179 8.79998 3.77656 8.9264 3.55152 9.15145C3.32648 9.37649 3.20005 9.68172 3.20005 9.99998C3.20005 10.3182 3.32648 10.6235 3.55152 10.8485C3.77656 11.0735 4.08179 11.2 4.40005 11.2H4.41205C4.73031 11.2 5.03553 11.0735 5.26058 10.8485C5.48562 10.6235 5.61205 10.3182 5.61205 9.99998C5.61205 9.68172 5.48562 9.37649 5.26058 9.15145C5.03553 8.9264 4.73031 8.79998 4.41205 8.79998H4.40005ZM8.00005 8.79998C7.68179 8.79998 7.37656 8.9264 7.15152 9.15145C6.92648 9.37649 6.80005 9.68172 6.80005 9.99998C6.80005 10.3182 6.92648 10.6235 7.15152 10.8485C7.37656 11.0735 7.68179 11.2 8.00005 11.2H11.6C11.9183 11.2 12.2235 11.0735 12.4486 10.8485C12.6736 10.6235 12.8 10.3182 12.8 9.99998C12.8 9.68172 12.6736 9.37649 12.4486 9.15145C12.2235 8.9264 11.9183 8.79998 11.6 8.79998H8.00005ZM4.40005 13.6C4.08179 13.6 3.77656 13.7264 3.55152 13.9514C3.32648 14.1765 3.20005 14.4817 3.20005 14.8C3.20005 15.1182 3.32648 15.4235 3.55152 15.6485C3.77656 15.8735 4.08179 16 4.40005 16H4.41205C4.73031 16 5.03553 15.8735 5.26058 15.6485C5.48562 15.4235 5.61205 15.1182 5.61205 14.8C5.61205 14.4817 5.48562 14.1765 5.26058 13.9514C5.03553 13.7264 4.73031 13.6 4.41205 13.6H4.40005ZM8.00005 13.6C7.68179 13.6 7.37656 13.7264 7.15152 13.9514C6.92648 14.1765 6.80005 14.4817 6.80005 14.8C6.80005 15.1182 6.92648 15.4235 7.15152 15.6485C7.37656 15.8735 7.68179 16 8.00005 16H11.6C11.9183 16 12.2235 15.8735 12.4486 15.6485C12.6736 15.4235 12.8 15.1182 12.8 14.8C12.8 14.4817 12.6736 14.1765 12.4486 13.9514C12.2235 13.7264 11.9183 13.6 11.6 13.6H8.00005Z"
        fill="#111827" />
</svg>
    