<svg width="18" height="19" viewBox="0 0 18 19" fill="none" xmlns="http://www.w3.org/2000/svg">
    <path
        d="M7.44845 6.75162C7.22213 6.53304 6.919 6.41208 6.60437 6.41482C6.28973 6.41755 5.98876 6.54375 5.76627 6.76624C5.54378 6.98873 5.41757 7.28971 5.41484 7.60434C5.41211 7.91898 5.53306 8.2221 5.75165 8.44842L8.15165 10.8484C8.37668 11.0734 8.68185 11.1998 9.00005 11.1998C9.31825 11.1998 9.62342 11.0734 9.84845 10.8484L12.2484 8.44842C12.467 8.2221 12.588 7.91898 12.5853 7.60434C12.5825 7.28971 12.4563 6.98873 12.2338 6.76624C12.0113 6.54375 11.7104 6.41755 11.3957 6.41482C11.0811 6.41208 10.778 6.53304 10.5517 6.75162L10.2001 7.10322V1.60002C10.2001 1.28176 10.0736 0.97654 9.84858 0.751496C9.62353 0.526453 9.31831 0.400024 9.00005 0.400024C8.68179 0.400024 8.37657 0.526453 8.15152 0.751496C7.92648 0.97654 7.80005 1.28176 7.80005 1.60002V7.10322L7.44845 6.75162Z"
        fill="#111827" />
    <path
        d="M0.600098 3.99998C0.600098 3.36346 0.852954 2.75301 1.30304 2.30292C1.75313 1.85283 2.36358 1.59998 3.0001 1.59998H4.2001C4.51836 1.59998 4.82358 1.7264 5.04863 1.95145C5.27367 2.17649 5.4001 2.48172 5.4001 2.79998C5.4001 3.11824 5.27367 3.42346 5.04863 3.6485C4.82358 3.87355 4.51836 3.99998 4.2001 3.99998H3.0001V12.4H5.4001L6.6001 14.8H11.4001L12.6001 12.4H15.0001V3.99998H13.8001C13.4818 3.99998 13.1766 3.87355 12.9516 3.6485C12.7265 3.42346 12.6001 3.11824 12.6001 2.79998C12.6001 2.48172 12.7265 2.17649 12.9516 1.95145C13.1766 1.7264 13.4818 1.59998 13.8001 1.59998H15.0001C15.6366 1.59998 16.2471 1.85283 16.6972 2.30292C17.1472 2.75301 17.4001 3.36346 17.4001 3.99998V16C17.4001 16.6365 17.1472 17.2469 16.6972 17.697C16.2471 18.1471 15.6366 18.4 15.0001 18.4H3.0001C2.36358 18.4 1.75313 18.1471 1.30304 17.697C0.852954 17.2469 0.600098 16.6365 0.600098 16V3.99998Z"
        fill="#111827" />
</svg>
    